# xmcd CD database file
#
# Track frame offsets:
#	150
#	22272
#	33975
#	52765
#	66941
#	83024
#	97305
#	123563
#	141511
#	158349
#	181250
#	195869
#	208285
#	228634
#	242287
#
# Disc length: 3606 seconds
#
# Revision: 1
# Processed by: cddbd v1.5.2PL0 Copyright (c) Steve Scherf et al.
# Submitted via: CDex 1.70beta2
#
DISCID=ca0e140f
DTITLE=SCEI - グランツーリスモ4 オリジナルゲームサウンドトラック クラシックコレクション
DYEAR=2005
DGENRE=Game
TTITLE0=愛の夢第3番
TTITLE1=亜麻色の髪の乙女
TTITLE2=前奏曲 変ニ長調「雨だれ」
TTITLE3=月の光〜「ベルガマスク組曲」より
TTITLE4=組曲「展覧会の絵」より プロムナード
TTITLE5=春の歌
TTITLE6=ロンド ニ長調
TTITLE7=夢
TTITLE8=ジュ・トゥ・ヴ
TTITLE9=組曲「動物の謝肉祭」第13曲 白鳥
TTITLE10=主よ、人の望みの喜びよ
TTITLE11=ジムノペディ第1番
TTITLE12=G線上のアリア
TTITLE13=無伴奏チェロ曲第1番「プレリュード」
TTITLE14=カノン
EXTD=YEAR: 2005
EXTT0=
EXTT1=
EXTT2=
EXTT3=
EXTT4=
EXTT5=
EXTT6=
EXTT7=
EXTT8=
EXTT9=
EXTT10=
EXTT11=
EXTT12=
EXTT13=
EXTT14=
PLAYORDER=
